<?xml version="1.0" encoding="utf-8"?>
<!-- Generator: Adobe Illustrator 24.2.0, SVG Export Plug-In . SVG Version: 6.00 Build 0)  -->
<svg version="1.1" id="图层_1" xmlns="http://www.w3.org/2000/svg" xmlns:xlink="http://www.w3.org/1999/xlink" x="0px" y="0px"
	 viewBox="0 0 283.5 283.5" style="enable-background:new 0 0 283.5 283.5;" xml:space="preserve">

<g id="hair01" transform="translate(-110, -80) scale(1.45)">
	<g
	fill="$fillColor"
	stroke="black"
    stroke-width="2">
	<path  d="M203.6,67.8c0.1-0.4,7,16.6-0.4,31.4c0,0-2.9-15-6.6-24C196.5,75.2,203.5,68.2,203.6,67.8z"/>
	<path  d="M88.8,127.1c0,0-31.2-1.1-33.3,21.9s11.9,38.2,36.2,32.4s19.8-33.4,19.4-34S88.3,126.1,88.8,127.1z"/>
	<path  d="M203.8,67.7c0,0-35.8,45.1-76.8,47.6c0,0-9.1-6.6-15.9,3.6c-6.8,10.2,6,24.1,11.2,29.9l-5.8-0.3l0.6,8
		c0,0-48.7-24.1-43.3-68.6c4.3-35.7,30.6-53.1,70.9-50.4C171.7,39.3,191.9,49,203.8,67.7z"/>
	<path  d="M75.3,129.7c0,0-7.6,29.1,18.9,50.3"/>
	<path  d="M56.6,146.3c0,0,5.5,16.3,22.3,17.8"/>
	</g>
	<g
	fill="white">
		<path  d="M195.8,66.5c0,0-26.5,36.8-66.8,43.3C129,109.7,165.4,97.1,195.8,66.5z"/>
		<path  d="M172.7,80.4c0,0-25.1,19.9-51.5,27.5C121.2,107.9,159,89.7,172.7,80.4z"/>
		<path  d="M188.8,58.1c0,0-37.5,4.4-47.7,18.4C141.1,76.5,156.8,63,188.8,58.1z"/>
		<path  d="M187.1,62.6c0,0-35.4,9.6-74.8,40.2C112.3,102.7,137.8,84.8,187.1,62.6z"/>
		<path  d="M60.6,145c0,0,3.7,11.7,14.4,14.5C75,159.5,65.4,154.4,60.6,145z"/>
		<path  d="M63.4,138.2c0,0-3.2,10.2,9.1,17.9C72.5,156.1,65,148.8,63.4,138.2z"/>
		<path  d="M64.2,172.3c0,0,14.4,7.2,22.3,3.4C86.5,175.6,78.8,182.7,64.2,172.3z"/>
		<path  d="M71,177.2c0,0,11.2,4.7,16.4-0.6C87.4,176.6,84.6,183.8,71,177.2z"/>
		<path  d="M108.3,155.6c0,0-0.5,11.4-8.3,17.5C100,173.1,105.1,168.9,108.3,155.6z"/>
		<path  d="M106.5,153.8c0,0-0.1,4.6-4.6,13C103.9,162.6,105.4,158.3,106.5,153.8z"/>
	</g>
</g>
</svg>
