<?xml version="1.0" encoding="utf-8"?>
<!-- Generator: Adobe Illustrator 24.2.0, SVG Export Plug-In . SVG Version: 6.00 Build 0)  -->
<svg version="1.1" id="图层_1" xmlns="http://www.w3.org/2000/svg" xmlns:xlink="http://www.w3.org/1999/xlink" x="0px" y="0px"
	 viewBox="0 0 283.5 283.5" style="enable-background:new 0 0 283.5 283.5;" xml:space="preserve">

<g id="hair07" transform="translate(-110, -80) scale(1.45)">
	<path 
	fill="$fillColor"
	stroke="black"
    stroke-width="2"
	 d="M179,70.7c0,0,23.9,4.8,24.2,24.5c0,0,12-12.4,0.4-32.7s-27.9-16.1-34.2-13.8c0,0-47.1-38.7-96.5,19.2
		c-40.5,47.4-9.7,72.5-9.7,87.4c0,10.8-17.7,6.8-25.1,25.2c-8.4,20.9,4,25.8,3.4,36.7s-22.6,13.6-22.4,30.6
		c0.4,24,15.2,23.3,19.2,22.7c0,0-4.9-4.7,0.1-12.8c0,0,0.3,9.6,5.4,12.2c0,0,63.7,2.1,77.9-1.5c0,0-12.2-20.6-6.3-30.3
		s9.1-9.5,9.2-16c0.1-4.9-11.5-9.4-5.4-22.8s9-15.8,6.4-24.9s-8.1-19.6-2.9-25.7c0,0-22.2-21.9-9-32.9c8.1-6.7,14.2,0.2,14.3,0.3
		S174.3,99.7,179,70.7z"/>
	<g
	fill="white">
		<path  d="M190.5,70.2c0,0,8.9,1.6,14.1,16C204.5,86.2,201.9,69.6,190.5,70.2z"/>
		<path  d="M194.2,67c0,0,5.9,1.9,11.4,14.2C205.6,81.2,203.1,67.9,194.2,67z"/>
		<path  d="M169,56.3c0,0,13,15.5-5.5,33.4C163.5,89.7,176.8,74.1,169,56.3z"/>
		<path  d="M165.1,51.4c0,0-27.2-21.4-57.7-3.6C107.4,47.9,135.6,34.6,165.1,51.4z"/>
		<path  d="M165.7,54.4c0,0,2.9,6.5-9.7,25C156,79.3,164.8,62.1,165.7,54.4z"/>
		<path  d="M164.6,52.6c0,0-15.3-8.2-31.4-2.3C133.2,50.3,149.2,47.7,164.6,52.6z"/>
		<path  d="M39.2,229.3c0,0-28.9,18.3-7,36.9C32.2,266.1,15.9,250.9,39.2,229.3z"/>
		<path  d="M45.5,236.9c0,0-7.3,18.6,0.7,28.9C46.1,265.8,41.8,258.1,45.5,236.9z"/>
		<path  d="M50.2,249.2c0,0-4.5,10.6,1.1,15.9C51.4,265.1,49.1,259.2,50.2,249.2z"/>
		<path  d="M54.9,252.4c0,0-4,4.3,0.8,12.6C54.6,261,54.3,256.7,54.9,252.4z"/>
		<path  d="M61,252.3c-2.7,3.9-2.7,9.1,0,13C61,265.3,59.3,261.1,61,252.3z"/>
		<path  d="M65.3,254.9c0,0-4.8,6.3,1.7,10.4C64.7,262.3,64.1,258.4,65.3,254.9z"/>
		<path  d="M71.9,253.1c0,0-6.2,5.1,0.6,12.4C70.5,261.7,70.3,257.2,71.9,253.1z"/>
		<path  d="M77.3,253.6c0,0-4.2,6.9,1.4,11.6C78.7,265.2,76.1,260.7,77.3,253.6z"/>
		<path  d="M83.2,254.5c0,0-5.1,5.5,0,10.6C83.2,265.1,81.8,261.5,83.2,254.5z"/>
		<path  d="M89,253.6c0,0-5.4,8.4,0.8,11.6C89.8,265.2,86.7,261.9,89,253.6z"/>
		<path  d="M92.7,253.8c0,0-4.2,6.9,1.4,11.6C94.1,265.4,91.6,260.9,92.7,253.8z"/>
		<path  d="M98.6,254.8c0,0-5.1,5.5,0,10.6C98.6,265.3,97.2,261.7,98.6,254.8z"/>
		<path  d="M101,254.2c0,0-2.1,9.7,4.8,10.6C105.8,264.7,101.8,262.8,101,254.2z"/>
		<path  d="M69.9,82.2c0,0-25,23.2-0.4,67.4C69.4,149.6,51.9,112.4,69.9,82.2z"/>
		<path  d="M64,164.9c0,0-37.2,14.4-17.6,48.9C46.3,213.8,32.5,185,64,164.9z"/>
	</g>
</g>
</svg>
