<?xml version="1.0" encoding="utf-8"?>
<!-- Generator: Adobe Illustrator 24.2.0, SVG Export Plug-In . SVG Version: 6.00 Build 0)  -->
<svg version="1.1" id="图层_1" xmlns="http://www.w3.org/2000/svg" xmlns:xlink="http://www.w3.org/1999/xlink" x="0px" y="0px"
	 viewBox="0 0 283.5 283.5" style="enable-background:new 0 0 283.5 283.5;" xml:space="preserve">

<g id="hair03" transform="translate(-110, -80) scale(1.45)">
	<path 
	fill="$fillColor"
	stroke="black"
    stroke-width="2"
	d="M180.8,47.2c0,0,27.9,13.6,28.7,47.7l-7.4-5.8l-3.8,6.7c0,0-38.5,6.6-59.7,4c0,0-4,35.9,1.6,46l-4.6-3.4
		l0.1,3.2l-6.4,0.3c0,0-1.2-20.4,0.7-27c0,0-6.2-10.2-15.6-3.6s-7.1,19.8,8.1,33.1l-4.3,1.4l0.2,7.5c-0.6,6.2-75.4-49.6-24.5-102.5
		C126.7,20.7,173.5,44,180.8,47.2z"/>
	<g fill="white">
	<path  d="M189.5,79.1c0,0,6.1,3,3.1,14C192.9,88.2,191.9,83.4,189.5,79.1z"/>
	<path  d="M205.6,89.2c0,0,2.7-5.8-6-13C202.7,79.9,204.8,84.4,205.6,89.2z"/>
	<path  d="M187.6,81.4c0,0,2.9,1.8,1.1,11.8C188.8,93.2,188.9,85.8,187.6,81.4z"/>
	<path  d="M183.7,83.7c0,0,5.1,6.2-0.5,10.5C183.1,94.2,185.3,90.8,183.7,83.7z"/>
	<path  d="M195.7,81.8c0,0,5.8,6.2-0.1,10.9C195.6,92.7,197.8,89.1,195.7,81.8z"/>
	<path  d="M178.6,85.1c0,0,6,0.2,0.7,9.9C179.3,95,181.4,89,178.6,85.1z"/>
	<path  d="M175.4,85.6c0,0,5.1,2.8,0.9,10.3C176.2,95.9,178.4,90,175.4,85.6z"/>
	<path  d="M165.3,95.9c0,0,5.8-3,1.8-11.2C167.1,84.7,168.6,89.5,165.3,95.9z"/>
	<path  d="M161.8,95.8c0,0,2.9-1.5,1.1-10C162.9,85.8,163.1,92.1,161.8,95.8z"/>
	<path  d="M157.6,97c0,0,6.3-5.2-0.7-8.9C156.9,88.2,159.6,91.1,157.6,97z"/>
	<path  d="M171.6,95.4c0,0,5.8-5.2-0.1-9.3C171.5,86.1,173.6,89.2,171.6,95.4z"/>
	<path  d="M153.1,97.1c0,0,6-0.2,0.7-8.4C153.9,88.7,156,93.8,153.1,97.1z"/>
	<path  d="M149.7,97.4c0,0,5.1-2.4,0.9-8.7C150.6,88.7,152.7,93.8,149.7,97.4z"/>
	<path  d="M91.2,123.7c0,0,10.7,21.1,22.3,28.2C105,143.4,97.5,133.9,91.2,123.7z"/>
	<path  d="M133.7,103.9c0,0-4.2,23.3,0.8,36C132.9,128,132.6,115.9,133.7,103.9z"/>
	<path  d="M101.4,134.1c0,0,6.6,11.2,13.7,15C109.9,144.6,105.4,139.6,101.4,134.1z"/>
	<path  d="M107.6,137.4c0,0,4.8,7.5,10,10.1C113.9,144.5,110.5,141.1,107.6,137.4z"/>
	<path  d="M112.4,47.4c0,0-31.4,15.3-32.1,48.5C80.2,95.9,81.8,71.4,112.4,47.4z"/>
	</g>
</g>
</svg>
