<?xml version="1.0" encoding="utf-8"?>
<!-- Generator: Adobe Illustrator 24.2.0, SVG Export Plug-In . SVG Version: 6.00 Build 0)  -->
<svg version="1.1" id="图层_1" xmlns="http://www.w3.org/2000/svg" xmlns:xlink="http://www.w3.org/1999/xlink" x="0px" y="0px"
	 viewBox="0 0 283.5 283.5" style="enable-background:new 0 0 283.5 283.5;" xml:space="preserve">
<style type="text/css">
	
		.st0{fill-rule:evenodd;clip-rule:evenodd;fill:#FFFFFF;stroke:#231815;stroke-width:2;stroke-linecap:round;stroke-linejoin:round;}
	.st1{fill:#3E3A39;stroke:#231815;stroke-width:2;stroke-linecap:round;stroke-linejoin:round;}
	.st2{fill:none;stroke:#231815;stroke-width:2;stroke-linecap:round;stroke-linejoin:round;}
	
		.st3{fill-rule:evenodd;clip-rule:evenodd;fill:#C9BC9C;stroke:#231815;stroke-width:2;stroke-linecap:round;stroke-linejoin:round;}
</style>
<g id="face01" transform="translate(-110, -80) scale(1.45)">
	<path class="st0" d="M202,152.4c0,0-0.9,4.6-0.5,6.4s-2,2.5-7.6,2.5s5.1-0.1,5.1-0.1s1.5,1.7-0.5,3.7s-1.6,5.4-1.4,8.8
		s3.2,11-2.6,13.3s-38.8-3.3-60.1-18.6c-9.4-6.7-32.4-21.7-40.1-37.4C83.5,109.5,78.9,78,97.4,61.7c41.2-36.1,89.7-1.5,98.9,12
		c2.9,4.3,11.3,19.5,4.7,52c-1.4,6.8,11.4,21.3,11.7,24.4s-18.6,1.9-18.6,1.9"/>
	<circle class="st1" cx="185.3" cy="124.4" r="3"/>
	<path class="st2" d="M163,125.2c0,0,21.7-10.9,36.1,0.2c3.1,2.4-33,9.1-55.9-11.1"/>
	<path class="st2" d="M200.9,109.6c0,0-13.2-11-53.6-1.7"/>
	<path class="st2" d="M128,127.3c0,0-3.9-8.7-9.2-6.3s-3.4,9.1,5.9,20.2"/>
	<path class="st2" d="M132.1,122.4c0,0-3-9.2-10.3-9.2c-7.7-0.1-23.7,11.8,1.2,35.2"/>
	<path class="st3" d="M156.5,199.3c-0.4-8.1,6.2-12.1,20.1-13c0,0-29.9-5.6-44.3-19.4c-5.6-5.4-8.3-17.3-8.6-17.9
		c0,0-16.2-14.1-14.8-24.5c0,0-18.2-18-23.4-20.1c0,0-1.3,11.6,16.3,42.1s11.4,42.2,8.7,48.1c-3.5,7.9-10.1,16.3-10.8,23.8
		c-0.6,12.3,80.2,42.6,80.7,27.9C174.9,237.2,157.8,218.4,156.5,199.3z"/>
</g>
</svg>
