<svg id="图层_1" data-name="图层 1" xmlns="http://www.w3.org/2000/svg" viewBox="0 0 283.46 283.46">
<g transform="translate(-110, -80) scale(1.45)">
<g id="吊带" >
<path
fill="#DFB5E5"
	stroke="black"
    stroke-width="2" 
 d="M100.8,212.82c9-5.38,37.43-5.47,46.44,28.07,0,0,26.57,2.82,32.49,1.23a80.49,80.49,0,0,0,11,11c6.65,5.49,12.53,9.22,14.19,30.74s-4.88,31.32-5.21,32.51S109.44,309,109.44,309s-1-18.56-7.76-29.47S70.25,231,100.8,212.82Z"/>
<path 
fill="white"
	stroke="black"
    stroke-width="2"
d="M92.87,297.33s-3.26-39.54-1.3-56.88c1.1-9.81,2.49-24.41,21.85-23.56s25,13,20.27,43.82c-4.12,27.11-4.08,37.29-4.14,38.18S92.87,297.33,92.87,297.33Z"/>
</g>
<g id="吊带剪纸纹" fill="white">
<g id="衣服剪纸纹">
<path class="cls-3" d="M148.14,245.29s-4.44-.19-.6,12.83C147.54,258.12,145.68,250.42,148.14,245.29Z"/><path class="cls-3" d="M152,244.74s-3.66,4.21-.45,11.78C151.51,256.52,150.65,249.32,152,244.74Z"/><path class="cls-3" d="M179,245.61s4.37,3.32,1.51,8C180.49,253.6,181,249.06,179,245.61Z"/><path class="cls-3" d="M176.22,245.45s2.09,1.56,1,8.64C177.22,254.09,177.25,247.68,176.22,245.45Z"/><path class="cls-3" d="M165.51,244.79a38.73,38.73,0,0,1-.21,9.35S164.05,249,165.51,244.79Z"/><path class="cls-3" d="M156.15,244.77s-3.43,4.08-1.12,10.48C155,255.25,154.1,251.36,156.15,244.77Z"/><path class="cls-3" d="M159.14,244.58s-3.28,3.16-.68,10.1C158.46,254.68,157.24,250.75,159.14,244.58Z"/><path class="cls-3" d="M162,245s-2.35,3,.06,9.27A77,77,0,0,1,162,245Z"/><path class="cls-3" d="M172.66,244.91a38.73,38.73,0,0,1-.21,9.35S171.2,249.08,172.66,244.91Z"/><path class="cls-3" d="M169.18,245.16s-2.34,3,.06,9.27A77,77,0,0,1,169.18,245.16Z"/></g><path class="cls-3" d="M145.21,264s8.81,19.53,53.89,16.58C199.1,280.58,155.1,288.09,145.21,264Z"/>
</g>
</g>
</svg>