<?xml version="1.0" encoding="utf-8"?>
<!-- Generator: Adobe Illustrator 24.2.0, SVG Export Plug-In . SVG Version: 6.00 Build 0)  -->
<svg version="1.1" id="图层_1" xmlns="http://www.w3.org/2000/svg" xmlns:xlink="http://www.w3.org/1999/xlink" x="0px" y="0px"
	 viewBox="0 0 283.5 283.5" style="enable-background:new 0 0 283.5 283.5;" xml:space="preserve"
	 >
<!-- <style type="text/css">
	
		.st0{fill-rule:evenodd;clip-rule:evenodd;fill:#3E3A39;stroke:#231815;stroke-width:2;stroke-linecap:round;stroke-linejoin:round;}
	.st1{fill-rule:evenodd;clip-rule:evenodd;fill:#FFFFFF;}
</style> -->
<g id="hair04" >
	<path 
	fill="$fillColor"
	stroke="black"
    stroke-width="2"
	d="M193.9,64.7c0,0,16.8,12.2,11.8,30c-0.8,2.8-24.3,0.6-49.8,0.2c-3.8-0.1-3.3-16.5-6.3-15.7
		s-8.7,11.5-10.9,21.2c-3.8,16.4,7.9,36.4,1,50.8s4.9,12.6,6,28.9l-64.5,2.2c0,0-13.3-17.5-17.5-33.9c-4.6-18-23.7-91.1,44.9-104.5
		S192.3,56.7,193.9,64.7z"/>

	<g fill="#ffffff">
	
		<path  d="M195.7,78.2c0,0,5.5,3.6,1.7,14.2C198.2,87.6,197.6,82.7,195.7,78.2z"/>
		<path  d="M193.7,80.3c0,0,2.6,2,0.1,11.8C193.7,92.1,194.5,84.8,193.7,80.3z"/>
		<path  d="M190,81.3c0,0,4.2,4.2-1.4,10.4C188.6,91.7,191,88.4,190,81.3z"/>
		<path  d="M200.7,80.7c0,0,6.1,5.7,0.9,10.9C201.6,91.5,203.3,87.7,200.7,80.7z"/>
		<path  d="M185.1,82.2c0,0,4.2,0.6-0.4,9.9C184.7,92.1,186.7,86.3,185.1,82.2z"/>
		<path  d="M182,82.5c0,0,4.6,3.2,0,10.3C181.9,92.8,184.5,87,182,82.5z"/>
		<path  d="M171.5,91.7c0,0,5.8-2.5,2.7-11C174.2,80.8,175.2,85.7,171.5,91.7z"/>
		<path  d="M168.1,91.4c0,0,2.9-1.2,1.9-9.8C170.1,81.6,169.7,87.9,168.1,91.4z"/>
		<path  d="M164.1,92.2c0,0,6.5-4.7,0.1-8.9C164.2,83.3,166.5,86.5,164.1,92.2z"/>
		<path  d="M177.5,91.8c0,0,5-4.8,0.7-9.2C178.2,82.6,179.7,85.9,177.5,91.8z"/>
		<path  d="M159.8,92c0,0,5.5-2.6,1.4-8.3C161.2,83.7,162.8,88.9,159.8,92z"/>
		<path  d="M156.5,91.9c0,0,5.1-1.9,1.6-8.6C158.1,83.3,159.7,88.6,156.5,91.9z"/>
		<path  d="M100.2,54.1c0,0-35.5,11.8-35.9,60.3C64.3,114.4,65,76.8,100.2,54.1z"/>
		<path  d="M75.9,159.9c0,0,1.6,13.4,8.7,16.1C84.5,176,81.4,173.7,75.9,159.9z"/>
	</g>
</g>
</svg>
