<?xml version="1.0" encoding="utf-8"?>
<!-- Generator: Adobe Illustrator 24.2.0, SVG Export Plug-In . SVG Version: 6.00 Build 0)  -->
<svg version="1.1" id="图层_1" xmlns="http://www.w3.org/2000/svg" xmlns:xlink="http://www.w3.org/1999/xlink" x="0px" y="0px"
	 viewBox="0 0 283.5 283.5" style="enable-background:new 0 0 283.5 283.5;" xml:space="preserve">

<g id="hair06" >
<g 
	fill="$fillColor"
	stroke="black"
    stroke-width="2">
	<path  d="M100.8,160.2c0,0,13.9,4.3,20.1-13.3c0,0-8.8-8.4-9.4-12C111,144.3,107.2,153.3,100.8,160.2z"/>
	<path  d="M65.5,237.7c0,0-20.6,14.1-23.7,25.8l9.3-6.2c0,0-0.3,9.9-0.7,11.5s26.5,9.8,32.2,6.9c0,0,4.6-12.5-0.5-33.2
		S65.5,237.7,65.5,237.7z"/>
	<path  d="M80.6,219.9c0,0,25.1,6.4-11,31C69.6,250.9,73.7,223.6,80.6,219.9z"/>
	<path  d="M69.6,250.9c0,0-19.3-20.2,0.3-31s6.5,8.8,6.3,9.4S68.4,247.8,69.6,250.9z"/>
	<path  d="M75.9,231.4c0,0,25.6-1.2,24.7-26.2s-11.6-3.2-12.4-1.3C88.2,204,74.6,225.1,75.9,231.4z"/>
	<path  d="M77,194.5c0,0-18.1,20.6-2.3,37.2c6.2-8.6,10.7-18.3,13.3-28.6C88,203.1,83,192.5,77,194.5z"/>
	<path  d="M104.3,177.6c0,0,7.8,32.4-19.7,32.9c0,0-2-32.2,8.8-35.2S103.6,176.7,104.3,177.6z"/>
	<path  d="M113.2,156.6c0,0,6.3,26.2-18.6,25.9c0,0-2.6-20.4,5.4-27.5S111.9,156,113.2,156.6z"/>
	<path  d="M84.6,210.5c0,0-24.7-17.2,0.6-43.3s10.1,14,9.8,14.8S88.6,205.9,84.6,210.5z"/>
	<path  d="M86.8,142.7c0,0-14.4,23.8,6.8,39c0,0,7.6-2.9,8.1-20C101.7,161.6,97.6,143.8,86.8,142.7z"/>
	<path  d="M136.5,97.8c0.9,14.8,0.3,29.7-1.9,44.4c0,0-2-18.5-4.4-23.3s-12.8-10.6-19.2,0c-4.1,6.6-1.3,14.5,0.2,16.2
		c0,0-0.6,17-10.5,24.9c0,0-23.1-15.4-23.3-57.8S130.5,92.2,136.5,97.8z"/>
	<path  d="M189.9,54.7c0,0,16.9,13,11.5,29.6c0,0-11.3-11.7-22.8-12.3C178.6,72,186.7,62.9,189.9,54.7z"/>
	<path  d="M189.6,54c0,0-19.2,57.5-112,47.9c0,0-4.4-49.2,41.6-60.1C162.3,31.6,182.5,48.2,189.6,54z"/>
	</g>
	<g
	fill="white">
		<path  d="M183.6,70c0,0,10.9,3.6,16.2,9.4C199.9,79.3,196.3,71.1,183.6,70z"/>
		<path  d="M187.4,67.6c0,0,6.6,0.7,12,7.4C199.4,75,197,67.5,187.4,67.6z"/>
		<path  d="M184,56.2c0,0-2.9,11.8-24.6,26.5C159.4,82.6,179.2,65.5,184,56.2z"/>
		<path  d="M83.5,124.7c0.3,1.4,5.5,19.2,16.6,30.2C100.1,155,88.4,139.1,83.5,124.7z"/>
		<path  d="M94.6,140.1c0,0,0.5,5.6,7.5,13.1C102.1,153.2,97.4,145.8,94.6,140.1z"/>
		<path  d="M98.4,141.4c0,0,1,6.1,5.5,9.8C101.8,148,100,144.8,98.4,141.4z"/>
		<path  d="M85.9,160.7c-0.4,6.7,2.5,13.2,7.7,17.4C93.5,178.1,87,169.9,85.9,160.7z"/>
		<path  d="M88.6,163.6c0,0,0.4,5.9,5.8,13C94.4,176.6,89.4,167.3,88.6,163.6z"/>
		<path  d="M92,164.7c0,0-0.6,4,3.6,10.1C94.2,171.5,93,168.2,92,164.7z"/>
		<path  d="M76.6,188.1c-0.4,6.7,2.5,13.2,7.7,17.4C84.3,205.5,77.7,197.3,76.6,188.1z"/>
		<path  d="M79.3,191c0,0,0.4,5.9,5.8,13C85.1,204,80.2,194.7,79.3,191z"/>
		<path  d="M82.8,192.1c0,0-0.5,4,3.6,10.1C84.9,198.9,83.7,195.5,82.8,192.1z"/>
		<path  d="M71.8,209.5c-1.6,5.8-0.4,12,3.4,16.7C75.2,226.2,71,217.7,71.8,209.5z"/>
		<path  d="M73.7,212.6c0,0-0.8,5.2,2.6,12.5C76.2,225,73.7,215.9,73.7,212.6z"/>
		<path  d="M76.5,214.2c0,0-1.2,3.4,1.2,9.6C77.1,220.6,76.7,217.4,76.5,214.2z"/>
		<path  d="M65,230.6c-1.3,4.7-0.3,9.8,2.8,13.6C67.8,244.2,64.3,237.3,65,230.6z"/>
		<path  d="M66.5,233.1c0,0-0.6,4.3,2.1,10.2C68.6,243.3,66.5,235.8,66.5,233.1z"/>
		<path  d="M68.8,234.4c0,0-1,2.8,1,7.8C69.3,239.6,69,237,68.8,234.4z"/>
		<path  d="M113.8,145c0,0-0.4,2-3.8,5.6C110,150.6,113.8,148.9,113.8,145z"/>
		<path  d="M115.2,146.5c0,0-0.2,2.6-3.3,5.4C114.2,151.1,115.5,148.8,115.2,146.5z"/>
		<path  d="M110.6,167.5c0,0-0.8,8.4-11.1,12.2C104.5,177.1,108.5,172.8,110.6,167.5z"/>
		<path  d="M110.7,164.5c0,0-1.1,6.7-9.6,12.5C101.1,177,107.8,170.7,110.7,164.5z"/>
		<path  d="M101.1,194.2c0,0-0.8,8.4-11.1,12.2C95,203.8,99,199.5,101.1,194.2z"/>
		<path  d="M101.2,191.1c0,0-1.1,6.7-9.6,12.6C91.6,203.7,98.2,197.4,101.2,191.1z"/>
		<path  d="M93.3,215.5c0,0-0.8,8.4-11.1,12.2C87.2,225.1,91.2,220.8,93.3,215.5z"/>
		<path  d="M93.4,212.4c0,0-1.1,6.7-9.6,12.5C83.8,225,90.4,218.7,93.4,212.4z"/>
		<path  d="M83.3,233.7c0,0-0.7,6.8-9,10C78.5,241.5,81.6,238,83.3,233.7z"/>
		<path  d="M83.4,231.2c0,0-0.9,5.4-7.8,10.2C75.6,241.4,81,236.2,83.4,231.2z"/>
		<path  d="M133,101.9c0,0-0.6,14.9,1.2,23.4C134.8,117.5,134.4,109.6,133,101.9z"/>
		<path  d="M182.8,53.6c-8.3-6.9-18.9-10.6-29.8-10.4C153.1,43.1,169.7,46,182.8,53.6z"/>
		<path  d="M182.4,55.6c0,0-15.1,13.3-27.3,19.3C155.1,74.9,163.1,66.9,182.4,55.6z"/>
		<path  d="M79.1,260.8c0,0,5.8,6.2-0.1,10.9C79,271.7,81.2,268.1,79.1,260.8z"/>
		<path  d="M76.1,261.2c0,0,4.6,3.6-1,10.3C75.1,271.5,78.3,266,76.1,261.2z"/>
		<path  d="M70.4,270.7c0,0,6.3-2,3.9-10.7C74.3,260,74.8,265,70.4,270.7z"/>
		<path  d="M66.7,269.9c0,0,4.6-4.5,1.2-8.8C68,261.1,69,264.2,66.7,269.9z"/>
		<path  d="M55.8,267.7c0,0-3.6-4.2,1.5-8.3C57.3,259.4,54.4,263.9,55.8,267.7z"/>
		<path  d="M58.6,267.9c0,0-3.8-6.5,2.8-8.5C61.4,259.4,58.5,261.6,58.6,267.9z"/>
		<path  d="M62.3,268.7c0,0-3.6-4.2,1.5-8.3C63.8,260.4,60.9,264.9,62.3,268.7z"/>
	</g>
</g>
</svg>
