<?xml version="1.0" encoding="utf-8"?>
<!-- Generator: Adobe Illustrator 24.2.0, SVG Export Plug-In . SVG Version: 6.00 Build 0)  -->
<svg version="1.1" id="图层_1" xmlns="http://www.w3.org/2000/svg" xmlns:xlink="http://www.w3.org/1999/xlink" x="0px" y="0px"
	 viewBox="0 0 283.5 283.5" style="enable-background:new 0 0 283.5 283.5;" xml:space="preserve">

<g id="hair05" >
<g
fill="$fillColor"
	stroke="black"
    stroke-width="2">
	<path  d="M94.1,57.3c0,0-26.1-23.3-42.6,10.9s-3.2,65.5-9.4,118s-22,72.1-34.7,75.2c0,0,16.9,2.8,26.9-11
		c0,0-4.4,24.9-13.9,28.2c0,0,34-10.2,53.4-85.3c14.7-56.9,0.7-93.6,1.8-99.3S91.7,58.7,94.1,57.3z"/>
	<path  d="M182.9,51.9c0,0,10-4.7,25.1,17.5c11,16.1,5.6,32.3,5.2,32.7c0,0-52.5-3.6-58.7-4.2l-1.4-14.7l-5,14.1l-6-1.1
		c0,0-10.6,29.7-1.8,43c0,0-8.3-7.2-7.7-17.1c0,0-5.4-13.4-15.4-8.2s-12.4,17.1,4.6,33.6l-4.8,1.5l1.2,8.9c0,0-37.7-19-42.7-50.9
		c-1.9-11.8-1.8-33.1,16.5-48C122.2,19.9,179.6,41.2,182.9,51.9z"/>
</g>
	<g fill="white">
		<path  d="M199.8,85.8c0,0,2.6,2.3-1.1,11.8C198.8,97.6,200.3,90.3,199.8,85.8z"/>
		<path  d="M195.9,86.4c0,0,4,4.6-2.5,10.2C193.4,96.6,196.2,93.6,195.9,86.4z"/>
		<path  d="M204,87.3c0,0,4,4.6-2.5,10.2C201.5,97.5,204.3,94.5,204,87.3z"/>
		<path  d="M207.2,86.8c0,0,5.8,6.2-0.1,10.9C207.1,97.7,209.3,94.1,207.2,86.8z"/>
		<path  d="M190.6,86.9c0,0,4.4,1-1.3,9.8C189.2,96.7,191.9,91.1,190.6,86.9z"/>
		<path  d="M187.3,86.9c0,0,4.6,3.6-1,10.3C186.2,97.1,189.5,91.7,187.3,86.9z"/>
		<path  d="M175.4,95.1c0,0,6.3-2,3.9-10.7C179.3,84.5,179.8,89.5,175.4,95.1z"/>
		<path  d="M171.9,94.5c0,0,3.2-1,3-9.6C174.9,84.9,173.9,91.1,171.9,94.5z"/>
		<path  d="M166.2,94.4c0,0,7.3-4,1-8.8C167.2,85.6,169.4,88.9,166.2,94.4z"/>
		<path  d="M181.7,95.8c0,0,5.8-4.3,1.6-9.1C183.3,86.6,184.5,90,181.7,95.8z"/>
		<path  d="M161.5,94c0,0,6-2.1,2.3-8.1C163.8,85.9,165,91.2,161.5,94z"/>
		<path  d="M159.1,94.2c0,0-6.9-15.6,8.9-34.2C168,60,157.7,76.4,159.1,94.2z"/>
		<path  d="M83.3,75.1c0,0-15.8,33.9,19.1,67.5C102.4,142.6,75.6,116.2,83.3,75.1z"/>
		<path  d="M94.3,63.5c9.5-9.1,22.3-14,35.4-13.7C129.7,49.8,117,49.8,94.3,63.5z"/>
		<path  d="M86.5,71c0,0,0.3,14.6,11.8,21.7C98.3,92.7,89,82.8,86.5,71z"/>
		<path  d="M90.5,66.9c0,0,6.5-4.3,18.3-2.2C102.7,64.9,96.6,65.7,90.5,66.9z"/>
		<path  d="M88.7,70c0,0,4,7.8,10.9,10.6C99.5,80.6,91.5,73.1,88.7,70z"/>
		<path  d="M85.1,58.6c0,0-22-18.3-35.3,26.1C49.8,84.7,62.7,48.5,85.1,58.6z"/>
		<path  d="M84.1,60.7c0,0-23.4-13-29.2,41.1C54.9,101.8,62.4,55.9,84.1,60.7z"/>
		<path  d="M83.4,63c0,0-22.4-1.9-19.9,46.2C63.5,109.2,65,65.2,83.4,63z"/>
		<path  d="M81.1,66.1c0,0-10.4,5.8-10.8,34.2C70.2,100.3,73.9,73.6,81.1,66.1z"/>
	</g>
	<path  d="M42.3,207.5c0,0-2,25.2-21.4,49.8C20.9,257.3,38.7,242.2,42.3,207.5z"/>
</g>
</svg>
