<?xml version="1.0" encoding="utf-8"?>
<!-- Generator: Adobe Illustrator 24.2.0, SVG Export Plug-In . SVG Version: 6.00 Build 0)  -->
<svg version="1.1" id="图层_1" xmlns="http://www.w3.org/2000/svg" xmlns:xlink="http://www.w3.org/1999/xlink" x="0px" y="0px"
	 viewBox="0 0 283.5 283.5" style="enable-background:new 0 0 283.5 283.5;" xml:space="preserve">

<g id="hair08" >
	<g
		fill="$fillColor"
	stroke="black"
    stroke-width="2">
	<path  
	d="M195.3,63.7c0,0-43.5,0.6-55.2,55.3s0.3,94.5-22.9,158.9c0,0-49.3-4.8-55.7-2.7c0,0,5.7-16.3,2.4-30.8
		c0,0-2,22.6-24.1,30.6c0,0,19.6-7.8,23.6-96.4C65.8,153,54,92.7,83.2,57.7C115.7,22.5,183.5,39,195.3,63.7z"/>
<path  d="M195.2,63.7c0,0,3.2,5.8,4.2,17.4c0,0-6.1-15.4-12.2-15.9C187.3,65.1,194,63.6,195.2,63.7z"/>
</g>
	<g
	fill="white">
		<path  d="M187.3,60.2c0,0-32.7,1.8-46.5,42.8C140.8,103,148.3,61.8,187.3,60.2z"/>
		<path  d="M187.5,58.3c0,0-22.1-18.6-54-16.5C133.5,41.8,161.2,42.8,187.5,58.3z"/>
		<path  d="M187.2,59.5c0,0-15.8-9-32.5-4C154.6,55.5,165.1,52.7,187.2,59.5z"/>
		<path  d="M68.2,151.8c0,0,7.7,55.2-7.8,91.2C60.4,243,71,223.2,68.2,151.8z"/>
		<path  d="M119.7,45c0,0-49.4,1.1-51.3,81.5C68.4,126.5,72.3,54.9,119.7,45z"/>
		<path  d="M145.3,57.7c0,0-62.4,4.2-53.5,137.9C91.8,195.6,84.8,75.5,145.3,57.7z"/>
	</g>
</g>
</svg>
