<?xml version="1.0" encoding="utf-8"?>
<!-- Generator: Adobe Illustrator 24.2.0, SVG Export Plug-In . SVG Version: 6.00 Build 0)  -->
<svg version="1.1" id="图层_1" xmlns="http://www.w3.org/2000/svg" xmlns:xlink="http://www.w3.org/1999/xlink" x="0px" y="0px"
	 viewBox="0 0 283.5 283.5" style="enable-background:new 0 0 283.5 283.5;" xml:space="preserve">

<g id="hair02" >
<g
fill="$fillColor"
	stroke="black"
    stroke-width="2">>
	<path  d="M91.9,133.2c0,0-46.6-3.2-54.5,104.3c1.7-4.9,4.3-9.5,7.7-13.5c0,0-0.9,14.6,1.2,21.6c0,0,23.1,2.6,28.9,1.1
		c0,0,1.1-10.6,2.3-12.9c0,0,0.6,8.4,3.8,12.1c0,0-1.2-62.8,21.2-102.2C102.7,143.9,99.1,131.4,91.9,133.2z"/>
	<path  d="M194.9,63.4c0,0-21.4,38.7-67.8,51.4c0,0-10.7-5.2-16.3,5.4s5.5,21.4,10.5,27.1l-6.2,0.6l0.1,7.2
		c-1,3.3-61.5-39.9-28.9-91.6C123.6,10.5,195.6,49.1,194.9,63.4z"/>
	<path  d="M195,63.8c0,0,10.5,4,6.6,22.9c0,0-3.9-13.1-10.1-17.9L195,63.8z"/>
</g>
	<g fill="white">
		<path  d="M187.2,65.7c0,0-26.5,36.8-66.8,43.3C120.4,109,156.8,96.3,187.2,65.7z"/>
		<path  d="M164.1,79.7c0,0-25.1,19.9-51.5,27.5C112.6,107.1,150.4,88.9,164.1,79.7z"/>
		<path  d="M180.2,57.3c0,0-37.5,4.4-47.7,18.4C132.5,75.7,148.2,62.3,180.2,57.3z"/>
		<path  d="M178.5,61.8c0,0-35.4,9.6-74.8,40.2C103.7,102,129.2,84,178.5,61.8z"/>
		<path  d="M95.5,147c0,0-7.7,12.7-8.8,23.9C86.6,170.9,81.6,162.4,95.5,147z"/>
		<path  d="M88.3,138c0,0-12.2,0.6-19.6,13.7C68.7,151.7,77.5,140.5,88.3,138z"/>
		<path  d="M62.2,159c0,0-12.6,12.6-19.9,64.6C42.2,223.6,52.7,173,62.2,159z"/>
		<path  d="M60.2,181.2c0,0-12.5,22.1-11,61.3C49.3,242.4,51,209.9,60.2,181.2z"/>
		<path  d="M93.1,145.1c0,0-11.6,6.8-24.7,39.1C68.4,184.2,72.8,156.8,93.1,145.1z"/>
		<path  d="M90.1,140.9c0,0-17.5,7-23.4,25.6C66.7,166.6,70.5,152.9,90.1,140.9z"/>
	</g>
</g>
</svg>
